<svg width="31" height="22" viewBox="0 0 31 22" fill="none" xmlns="http://www.w3.org/2000/svg">
<path d="M26.6798 13.9887C27.7082 15.2477 28.7935 16.4322 29.7158 17.8182C30.1232 18.4342 30.5089 19.0697 30.804 19.7845C31.2221 20.8006 30.8434 21.9187 30.1169 21.9794L25.6007 21.9768C24.4359 22.098 23.5067 21.51 22.7254 20.5112C22.1001 19.7125 21.5211 18.8625 20.9198 18.0368C20.6734 17.6994 20.4154 17.3819 20.1072 17.1309C19.4907 16.629 18.9555 16.7826 18.6032 17.589C18.2444 18.4092 18.163 19.3173 18.1277 20.2313C18.0794 21.5649 17.7579 21.9156 16.6897 21.9766C14.4068 22.1116 12.2402 21.6785 10.2274 20.2343C8.45292 18.9611 7.07693 17.1636 5.8792 15.1288C3.54736 11.1667 1.76153 6.81271 0.156562 2.33686C-0.20472 1.32846 0.0595061 0.787155 0.946758 0.767945C2.42004 0.732031 3.89314 0.734612 5.36818 0.765364C5.96699 0.776373 6.36339 1.20704 6.59462 1.91645C7.39171 4.37433 8.36706 6.7128 9.59132 8.88034C9.91736 9.4574 10.2498 10.0345 10.7232 10.4407C11.2469 10.8904 11.6457 10.7414 11.892 10.0097C12.0484 9.54578 12.1168 9.04609 12.1521 8.54929C12.2688 6.83991 12.2842 5.13339 12.0795 3.43001C11.9538 2.36693 11.4763 1.67871 10.6304 1.47758C10.1988 1.375 10.263 1.17356 10.472 0.864603C10.835 0.331735 11.1764 0 11.857 0H16.961C17.7645 0.198857 17.9429 0.65155 18.053 1.66543L18.0573 8.77518C18.0485 9.16766 18.2137 10.3325 18.7774 10.5922C19.2286 10.7772 19.526 10.3245 19.7968 9.96575C21.0188 8.33928 21.891 6.41705 22.6701 4.42666C23.0159 3.55143 23.3133 2.64255 23.6014 1.73437C23.8149 1.0605 24.1499 0.728917 24.7552 0.743572L29.6675 0.749038C29.8131 0.749038 29.9605 0.751697 30.1016 0.781992C30.9293 0.958906 31.1562 1.40545 30.9005 2.41909C30.4977 4.00942 29.7139 5.33477 28.9476 6.66618C28.1284 8.08764 27.2522 9.46052 26.4398 10.8904C25.6934 12.1964 25.7527 12.8545 26.6798 13.9887Z" fill="#5671A6"/>
</svg>
