<svg width="21" height="19" viewBox="0 0 21 19" fill="none" xmlns="http://www.w3.org/2000/svg">
<path fill-rule="evenodd" clip-rule="evenodd" d="M20.2111 2.20471C20.5025 0.784087 19.1071 -0.396479 17.7544 0.126177L1.17263 6.53277C-0.338017 7.11643 -0.405328 9.22886 1.06509 9.90747L4.67613 11.5742L6.39396 17.5865C6.48319 17.8988 6.73101 18.1406 7.04541 18.2221C7.35982 18.3035 7.69387 18.2126 7.92353 17.9828L10.5697 15.3367L14.2764 18.1168C15.3524 18.9237 16.9021 18.3359 17.1723 17.0184L20.2111 2.20471ZM1.83337 8.24289L18.4151 1.83631L15.3764 16.6501L11.0337 13.393C10.6687 13.1193 10.1581 13.1556 9.8355 13.4782L8.70213 14.6115L9.04268 12.7387L15.7152 6.0662C16.04 5.74148 16.0742 5.22657 15.7955 4.86161C15.5167 4.49665 15.011 4.39429 14.6122 4.62213L5.39731 9.88776L1.83337 8.24289ZM6.52088 11.3573L7.07673 13.3028L7.29014 12.129C7.32349 11.9456 7.412 11.7766 7.54384 11.6448L9.57874 9.61001L6.52088 11.3573Z" fill="#5671A6"/>
</svg>
