<svg width="25" height="20" viewBox="0 0 25 20" fill="none" xmlns="http://www.w3.org/2000/svg">
<path d="M25 2.39613C24.0604 2.79671 23.0668 3.06152 22.05 3.18232C23.1227 2.55254 23.9266 1.56178 24.3125 0.393828C23.3044 0.983542 22.201 1.39903 21.05 1.62224C20.2807 0.802362 19.2562 0.25661 18.1373 0.0705742C17.0183 -0.115462 15.8682 0.0687402 14.8672 0.594292C13.8663 1.11984 13.0712 1.95702 12.6066 2.97451C12.1419 3.99201 12.0341 5.13228 12.3 6.21649C10.2618 6.11517 8.26805 5.59363 6.44832 4.68572C4.62859 3.77781 3.02356 2.50386 1.7375 0.946612C1.28642 1.72072 1.0494 2.59738 1.05 3.48942C1.0484 4.31784 1.25527 5.13379 1.65219 5.86463C2.04912 6.59546 2.62377 7.21851 3.325 7.67829C2.50997 7.6565 1.71236 7.44158 1 7.0518V7.11322C1.00611 8.27394 1.41999 9.39695 2.17164 10.2923C2.92329 11.1877 3.96657 11.8004 5.125 12.0269C4.67907 12.1602 4.21609 12.2305 3.75 12.2357C3.42736 12.232 3.10553 12.2032 2.7875 12.1497C3.11739 13.1482 3.75578 14.0207 4.61384 14.646C5.47191 15.2713 6.50697 15.6182 7.575 15.6384C5.7715 17.033 3.54485 17.7941 1.25 17.8004C0.832169 17.8017 0.41467 17.7771 0 17.7267C2.34304 19.2134 5.07352 20.0026 7.8625 19.9992C9.78711 20.0189 11.6964 19.6614 13.4789 18.9478C15.2614 18.2342 16.8813 17.1787 18.244 15.8429C19.6067 14.5072 20.685 12.9179 21.4157 11.1681C22.1464 9.41824 22.515 7.54283 22.5 5.65142C22.5 5.44259 22.5 5.22147 22.5 5.00036C23.4809 4.28151 24.3268 3.40027 25 2.39613V2.39613Z" fill="#5671A6"/>
</svg>
